<svg version="1.1" id="Icons" xmlns="http://www.w3.org/2000/svg"
    xmlns:xlink="http://www.w3.org/1999/xlink" x="0px" y="0px" viewBox="0 0 32 32"
    style="enable-background:new 0 0 32 32;" xml:space="preserve">
    <style type="text/css">
        .st0{fill:none;stroke:#90A4AE;stroke-width:2;stroke-linecap:round;stroke-linejoin:round;stroke-miterlimit:10;}
    </style>
    <path class="st0" d="M11,13H5c-1.1,0-2-0.9-2-2V5c0-1.1,0.9-2,2-2h6c1.1,0,2,0.9,2,2v6C13,12.1,12.1,13,11,13z" id="id_101"></path>
    <path class="st0" d="M11,29H5c-1.1,0-2-0.9-2-2v-6c0-1.1,0.9-2,2-2h6c1.1,0,2,0.9,2,2v6C13,28.1,12.1,29,11,29z" id="id_102"></path>
    <line class="st0" x1="17" y1="5" x2="29" y2="5" id="id_103"></line>
    <line class="st0" x1="17" y1="9" x2="24" y2="9" id="id_104"></line>
    <line class="st0" x1="17" y1="21" x2="29" y2="21" id="id_105"></line>
    <line class="st0" x1="17" y1="25" x2="24" y2="25" id="id_106"></line>
    <polyline class="st0" points="6,7 8,9 11,6 " id="id_107"></polyline>
    </svg>